inDegrees=no
num_controls=7
num_derivatives=13
num_iterations=127
num_multipliers=7
num_parameters=0
num_slacks=7
num_states=26
objective=5.709821
objective_accelerations=0.739818
objective_balance=0.085477
objective_effort=0.710850
objective_height=4.080584
objective_ligament=0.093093
solver_duration=1319.560721
status=Solve_Succeeded
success=true
DataType=double
version=3
OpenSimVersion=4.4-2022-07-23-0e9fedc
endheader
time	/jointset/ground_pelvis/pelvis_tilt/value	/jointset/ground_pelvis/pelvis_tx/value	/jointset/ground_pelvis/pelvis_ty/value	/jointset/hip_l/hip_flexion_l/value	/jointset/hip_l/hip_adduction_l/value	/jointset/hip_l/hip_rotation_l/value	/jointset/back/lumbar_extension/value	/jointset/patellofemoral_l/patellar_flexion_l/value	/jointset/knee_l/knee_flexion_l/value	/jointset/knee_l/knee_adduction_l/value	/jointset/knee_l/knee_rotation_l/value	/jointset/ankle_l/ankle_angle_l/value	/jointset/subtalar_l/subtalar_angle_l/value	/jointset/ground_pelvis/pelvis_tilt/speed	/jointset/ground_pelvis/pelvis_tx/speed	/jointset/ground_pelvis/pelvis_ty/speed	/jointset/hip_l/hip_flexion_l/speed	/jointset/hip_l/hip_adduction_l/speed	/jointset/hip_l/hip_rotation_l/speed	/jointset/back/lumbar_extension/speed	/jointset/patellofemoral_l/patellar_flexion_l/speed	/jointset/knee_l/knee_flexion_l/speed	/jointset/knee_l/knee_adduction_l/speed	/jointset/knee_l/knee_rotation_l/speed	/jointset/ankle_l/ankle_angle_l/speed	/jointset/subtalar_l/subtalar_angle_l/speed	/forceset/tau_hip_flexion_l	/forceset/tau_hip_adduction_l	/forceset/tau_hip_rotation_l	/forceset/tau_knee_flexion_l	/forceset/tau_ankle_angle_l	/forceset/tau_subtalar_angle_l	/forceset/tau_lumbar_extension	lambda_cid13_p0	lambda_cid13_p1	lambda_cid13_p2	lambda_cid13_p3	lambda_cid13_p4	lambda_cid13_p5	lambda_cid14_p0	/jointset/ground_pelvis/pelvis_tilt/accel	/jointset/ground_pelvis/pelvis_tx/accel	/jointset/ground_pelvis/pelvis_ty/accel	/jointset/hip_l/hip_flexion_l/accel	/jointset/hip_l/hip_adduction_l/accel	/jointset/hip_l/hip_rotation_l/accel	/jointset/back/lumbar_extension/accel	/jointset/patellofemoral_l/patellar_flexion_l/accel	/jointset/knee_l/knee_flexion_l/accel	/jointset/knee_l/knee_adduction_l/accel	/jointset/knee_l/knee_rotation_l/accel	/jointset/ankle_l/ankle_angle_l/accel	/jointset/subtalar_l/subtalar_angle_l/accel	gamma_cid13_p0	gamma_cid13_p1	gamma_cid13_p2	gamma_cid13_p3	gamma_cid13_p4	gamma_cid13_p5	gamma_cid14_p0
0.5	-0.1620086067315848	-0.07218733453792006	0.6763773352771431	1.395314372601827	-0.3229525046575369	0.0473387922209474	-0.8636512809472293	1.375566778495953	1.375566778495952	-0.04373602586622264	-0.1745058446866414	0.2387814373701742	0.05459558948151349	-0.1916209297832742	-0.09617289958694675	-0.8804595468063431	2.686478136487314	0.06997146643302143	0.8427170496240877	-0.719882094388376	2.791052939400212	2.791052939400187	0.2720017552390177	4.348669098113912e-05	0.4867458623136269	0.2798796140421665	-0.3692554746146833	-0.003520559891838062	-0.002473571400194985	-0.3236684604293169	0.09234137052851059	0.03196308156249214	0.4108819042207774	-16.06503456257872	-10.46337902738891	0.5224247966833397	-18.94984927830767	-731.8595270613391	-66.92168472556986	-0.04228136847067934	1.24569959329503	1.229679753129629	-0.05041343953249852	-2.75306283497935	0.7271709273088623	-0.6201927455997108	3.102354836667338	-3.235442741072195	-3.235442741072192	-0.1945332870335392	0.0078090408629907	-1.91998803657418	0.3751736315997267	-1.56483990551279e-07	6.685821897685057e-08	2.287448423133112e-06	2.16782854723479e-08	-2.622358868240133e-07	1.656012275823852e-06	-3.707165619321723e-07
0.51	-0.1638622550650963	-0.07308798128230862	0.6675723180725343	1.422038695428216	-0.3222170755576687	0.05573612325255754	-0.8706950282141439	1.403312153392004	1.403312153392	-0.04102806240534373	-0.1745054203398655	0.2435516204868263	0.05741172552224119	-0.1790759906991419	-0.08399800518643737	-0.8803227441222866	2.65806967172609	0.07709973310845573	0.8367044729356986	-0.6888858527620161	2.75766508640655	2.757665086406582	0.2695725590175392	4.063441117699561e-05	0.467193452938917	0.2832807099953094	-0.377426287951328	-0.004656891050669535	-0.001844757464481196	-0.3310744574628363	0.09139437142134738	0.03028298367414594	0.4188833146103119	-17.00809433839422	-9.390399026200123	0.1478247964437719	-18.25937241284511	-740.6702315686214	-66.61187451293473	-0.04199702953257198	1.263771415725037	1.205159252952854	0.07885373367138536	-2.932287710414884	0.7031669350331099	-0.5987457674574145	3.09548476041427	-3.443931619747131	-3.443931619738593	-0.2699888331277637	-0.003983559002098893	-1.987429169130744	0.3122793754605808	-9.558741882043859e-08	8.191010606305456e-08	1.90673905346788e-06	-3.860830645988325e-08	-2.061460792418008e-07	1.481233484867893e-06	-3.116828312275298e-07
0.52	-0.1655894779378193	-0.07386812608880386	0.6587752942170256	1.448469423724251	-0.3214108613115707	0.06407193738989179	-0.8774293678778364	1.430712954749872	1.43071295474987	-0.0383449661153937	-0.1745049547552197	0.2481233671534893	0.06025981288215818	-0.1663358376248887	-0.07207251200828507	-0.8788608769862913	2.627759230416033	0.08412849567877856	0.8304136707673576	-0.6580005737438823	2.722138231763529	2.722138231763618	0.2670283210591577	5.173426737328169e-05	0.4470585723157511	0.2862698778800149	-0.3855971012879529	-0.005793222209476651	-0.001215943528985075	-0.3384804544963596	0.09044737231418822	0.02860288578583679	0.4268847249998612	-17.97017594448385	-8.308483300582425	-0.2345998843461047	-17.57005152767327	-749.709481259623	-66.37946608720679	-0.04164988535113164	1.284742391319306	1.179799508658124	0.2145994508552295	-3.133458144745831	0.7072701062865403	-0.675837841590024	3.080162315022048	-3.663243070943925	-3.663243070943957	-0.217541634414147	0.01059946806311042	-2.036482286265512	0.2927880179122594	-4.358757720515705e-08	5.922616279828621e-08	1.51855789547635e-06	-9.998524309017154e-08	-1.590871076191705e-07	1.256454190401081e-06	-2.54781996545621e-07
0.53	-0.1671885282658703	-0.07453033691617567	0.6499994674818972	1.474587768436912	-0.3205347103653874	0.07234277982765983	-0.8838555612003149	1.457748100084228	1.457748100084225	-0.03568701996304531	-0.1745042654903679	0.2524912217986591	0.06313600915220102	-0.1534597416549886	-0.06041823394943106	-0.8760867540999021	2.59560426524574	0.09108093092463358	0.8236974707785077	-0.6272757826813405	2.684557885973167	2.684557885973274	0.2645453668979416	8.135897363893501e-05	0.4264466113771262	0.2889015205432781	-0.3930622939605363	-0.007050855188808107	-0.0005605939570169723	-0.3455801527794957	0.08947458053697808	0.02688656373489643	0.4341669823858753	-18.90749017498951	-7.209087840781423	-0.6267627357706385	-16.82363871961547	-758.0767791152111	-66.13969975327964	-0.04131275941774045	1.291192109134123	1.150928437061268	0.3414492245103187	-3.302357008534262	0.6859286394359418	-0.6782728439202301	3.062983712350689	-3.85532772423123	-3.855327724228348	-0.2660929448526518	-0.001277709891772338	-2.083384370857851	0.2380079898550602	4.523887122172126e-09	3.205776779807842e-08	1.132805947568218e-06	-1.584046630655719e-07	-1.159402920714723e-07	9.848186621919237e-07	-1.953364920118457e-07
0.54	-0.1686583878523631	-0.07507746766644648	0.6412579080790292	1.500375395236798	-0.3195896953856039	0.08054470791225382	-0.8899756373700723	1.484397462482451	1.484397462482443	-0.03305438747987693	-0.1745033643148134	0.2566509905598032	0.06603645296874089	-0.1404976893127216	-0.04905649658808361	-0.8720074105342522	2.561615647860926	0.09790130239852951	0.816630800134145	-0.5967771431995641	2.644981644536853	2.644981644536979	0.2619655872216343	9.41164079019448e-05	0.4054413955106243	0.2911193871794104	-0.4005274866331089	-0.00830848816814783	9.475561503719944e-05	-0.3526798510626273	0.08850178875976357	0.02517024168394261	0.4414492397718973	-19.86692013192939	-6.100878750025873	-1.025973563080039	-16.06210753053915	-766.7030078834837	-65.97629196729159	-0.04099441108148463	1.301933665792786	1.121291369156739	0.4756435867073131	-3.500188587650034	0.6808573518947337	-0.7459319726925427	3.034931998868945	-4.062422200134143	-4.062422200134124	-0.2369067374324031	0.007226013662593512	-2.115133271841036	0.2100328124860535	4.833331700325611e-08	-7.214827112627625e-11	7.497416363481007e-07	-2.135519369547133e-07	-7.712181941518815e-08	6.613421945231483e-07	-1.330756080674948e-07
